<mxfile host="app.diagrams.net" modified="2024-02-06T03:27:18.077Z" agent="Mozilla/5.0 (Windows NT 10.0; Win64; x64) AppleWebKit/537.36 (KHTML, like Gecko) Chrome/121.0.0.0 Safari/537.36" etag="pSUgyv-moJgnUcia-a20" version="23.1.1" type="github">
  <diagram name="Page-1" id="O0e1SVlPlBs_hwqBBHN3">
    <mxGraphModel dx="1687" dy="868" grid="1" gridSize="10" guides="1" tooltips="1" connect="1" arrows="1" fold="1" page="1" pageScale="1" pageWidth="827" pageHeight="1169" math="0" shadow="0">
      <root>
        <mxCell id="0" />
        <mxCell id="1" parent="0" />
        <mxCell id="fkd6OsNKjprgPfUjHdYW-2" value="Perpustakaan Digital" style="rounded=0;whiteSpace=wrap;html=1;verticalAlign=top;fontSize=20;fontStyle=1;spacingTop=10;fontFamily=Verdana;" vertex="1" parent="1">
          <mxGeometry x="239" y="124" width="360" height="786" as="geometry" />
        </mxCell>
        <mxCell id="fkd6OsNKjprgPfUjHdYW-14" style="edgeStyle=none;rounded=0;orthogonalLoop=1;jettySize=auto;html=1;entryX=0;entryY=0.5;entryDx=0;entryDy=0;endArrow=none;endFill=0;" edge="1" parent="1" source="fkd6OsNKjprgPfUjHdYW-1" target="fkd6OsNKjprgPfUjHdYW-7">
          <mxGeometry relative="1" as="geometry">
            <mxPoint x="140.00000000000023" y="548.5254988913525" as="sourcePoint" />
            <mxPoint x="342" y="235" as="targetPoint" />
          </mxGeometry>
        </mxCell>
        <mxCell id="fkd6OsNKjprgPfUjHdYW-15" style="edgeStyle=none;rounded=0;orthogonalLoop=1;jettySize=auto;html=1;entryX=0;entryY=0.5;entryDx=0;entryDy=0;endArrow=none;endFill=0;" edge="1" parent="1" source="fkd6OsNKjprgPfUjHdYW-1" target="fkd6OsNKjprgPfUjHdYW-8">
          <mxGeometry relative="1" as="geometry">
            <mxPoint x="140.00000000000023" y="558.9467849223945" as="sourcePoint" />
            <mxPoint x="342" y="335" as="targetPoint" />
          </mxGeometry>
        </mxCell>
        <mxCell id="fkd6OsNKjprgPfUjHdYW-16" style="edgeStyle=none;rounded=0;orthogonalLoop=1;jettySize=auto;html=1;entryX=0;entryY=0.5;entryDx=0;entryDy=0;endArrow=none;endFill=0;" edge="1" parent="1" source="fkd6OsNKjprgPfUjHdYW-1" target="fkd6OsNKjprgPfUjHdYW-9">
          <mxGeometry relative="1" as="geometry" />
        </mxCell>
        <mxCell id="fkd6OsNKjprgPfUjHdYW-17" style="edgeStyle=none;rounded=0;orthogonalLoop=1;jettySize=auto;html=1;entryX=0;entryY=0.5;entryDx=0;entryDy=0;endArrow=none;endFill=0;" edge="1" parent="1" source="fkd6OsNKjprgPfUjHdYW-1" target="fkd6OsNKjprgPfUjHdYW-11">
          <mxGeometry relative="1" as="geometry" />
        </mxCell>
        <mxCell id="fkd6OsNKjprgPfUjHdYW-1" value="Pengunjung" style="shape=umlActor;verticalLabelPosition=bottom;verticalAlign=top;html=1;outlineConnect=0;" vertex="1" parent="1">
          <mxGeometry x="110" y="444" width="47" height="94" as="geometry" />
        </mxCell>
        <mxCell id="fkd6OsNKjprgPfUjHdYW-18" style="edgeStyle=none;rounded=0;orthogonalLoop=1;jettySize=auto;html=1;entryX=1;entryY=0.5;entryDx=0;entryDy=0;endArrow=none;endFill=0;" edge="1" parent="1" source="fkd6OsNKjprgPfUjHdYW-3" target="fkd6OsNKjprgPfUjHdYW-8">
          <mxGeometry relative="1" as="geometry" />
        </mxCell>
        <mxCell id="fkd6OsNKjprgPfUjHdYW-19" style="edgeStyle=none;rounded=0;orthogonalLoop=1;jettySize=auto;html=1;entryX=1;entryY=0.5;entryDx=0;entryDy=0;endArrow=none;endFill=0;" edge="1" parent="1" source="fkd6OsNKjprgPfUjHdYW-3" target="fkd6OsNKjprgPfUjHdYW-9">
          <mxGeometry relative="1" as="geometry" />
        </mxCell>
        <mxCell id="fkd6OsNKjprgPfUjHdYW-20" style="edgeStyle=none;rounded=0;orthogonalLoop=1;jettySize=auto;html=1;entryX=1;entryY=0.5;entryDx=0;entryDy=0;endArrow=none;endFill=0;" edge="1" parent="1" source="fkd6OsNKjprgPfUjHdYW-3" target="fkd6OsNKjprgPfUjHdYW-11">
          <mxGeometry relative="1" as="geometry" />
        </mxCell>
        <mxCell id="fkd6OsNKjprgPfUjHdYW-21" style="edgeStyle=none;rounded=0;orthogonalLoop=1;jettySize=auto;html=1;entryX=1;entryY=0.5;entryDx=0;entryDy=0;endArrow=none;endFill=0;" edge="1" parent="1" source="fkd6OsNKjprgPfUjHdYW-3" target="fkd6OsNKjprgPfUjHdYW-10">
          <mxGeometry relative="1" as="geometry" />
        </mxCell>
        <mxCell id="fkd6OsNKjprgPfUjHdYW-24" style="edgeStyle=none;rounded=0;orthogonalLoop=1;jettySize=auto;html=1;entryX=1;entryY=0.5;entryDx=0;entryDy=0;endArrow=none;endFill=0;" edge="1" parent="1" source="fkd6OsNKjprgPfUjHdYW-3" target="fkd6OsNKjprgPfUjHdYW-12">
          <mxGeometry relative="1" as="geometry" />
        </mxCell>
        <mxCell id="fkd6OsNKjprgPfUjHdYW-25" style="edgeStyle=none;rounded=0;orthogonalLoop=1;jettySize=auto;html=1;entryX=1;entryY=0.5;entryDx=0;entryDy=0;endArrow=none;endFill=0;" edge="1" parent="1" source="fkd6OsNKjprgPfUjHdYW-3" target="fkd6OsNKjprgPfUjHdYW-13">
          <mxGeometry relative="1" as="geometry" />
        </mxCell>
        <mxCell id="fkd6OsNKjprgPfUjHdYW-3" value="Pustakawan" style="shape=umlActor;verticalLabelPosition=bottom;verticalAlign=top;html=1;outlineConnect=0;" vertex="1" parent="1">
          <mxGeometry x="680" y="444" width="47" height="94" as="geometry" />
        </mxCell>
        <mxCell id="fkd6OsNKjprgPfUjHdYW-7" value="Mengisi Form Kunjungan" style="ellipse;whiteSpace=wrap;html=1;" vertex="1" parent="1">
          <mxGeometry x="349" y="310" width="140" height="70" as="geometry" />
        </mxCell>
        <mxCell id="fkd6OsNKjprgPfUjHdYW-8" value="Lihat Riwayat Kunjungan" style="ellipse;whiteSpace=wrap;html=1;" vertex="1" parent="1">
          <mxGeometry x="349" y="400" width="140" height="70" as="geometry" />
        </mxCell>
        <mxCell id="fkd6OsNKjprgPfUjHdYW-9" value="Mencari Buku" style="ellipse;whiteSpace=wrap;html=1;" vertex="1" parent="1">
          <mxGeometry x="349" y="500" width="140" height="70" as="geometry" />
        </mxCell>
        <mxCell id="fkd6OsNKjprgPfUjHdYW-10" value="Login" style="ellipse;whiteSpace=wrap;html=1;" vertex="1" parent="1">
          <mxGeometry x="349" y="220" width="140" height="70" as="geometry" />
        </mxCell>
        <mxCell id="fkd6OsNKjprgPfUjHdYW-11" value="Detail Buku" style="ellipse;whiteSpace=wrap;html=1;" vertex="1" parent="1">
          <mxGeometry x="349" y="600" width="140" height="70" as="geometry" />
        </mxCell>
        <mxCell id="fkd6OsNKjprgPfUjHdYW-12" value="Lihat Statistik" style="ellipse;whiteSpace=wrap;html=1;" vertex="1" parent="1">
          <mxGeometry x="349" y="700" width="140" height="70" as="geometry" />
        </mxCell>
        <mxCell id="fkd6OsNKjprgPfUjHdYW-13" value="Mengelola Buku" style="ellipse;whiteSpace=wrap;html=1;" vertex="1" parent="1">
          <mxGeometry x="349" y="800" width="140" height="70" as="geometry" />
        </mxCell>
      </root>
    </mxGraphModel>
  </diagram>
</mxfile>
